<svg width="849" height="285" viewBox="0 0 849 285" fill="none" xmlns="http://www.w3.org/2000/svg">
<path d="M30.9103 135.904C28.0534 133.047 25.7871 129.656 24.241 125.923C22.6948 122.19 21.899 118.19 21.899 114.149C21.899 110.109 22.6948 106.108 24.241 102.376C25.7871 98.6428 28.0534 95.2512 30.9103 92.3943L122.04 1.26475C122.85 0.454918 123.949 0 125.095 0C126.24 0 127.339 0.454918 128.149 1.26475V1.26475C131.006 4.12097 133.272 7.51195 134.818 11.244C136.364 14.9761 137.16 18.9762 137.16 23.0159C137.16 27.0555 136.364 31.0556 134.818 34.7877C133.272 38.5197 131.006 41.9107 128.149 44.7669L37.0118 135.904C36.6112 136.305 36.1356 136.623 35.6122 136.84C35.0887 137.057 34.5276 137.168 33.961 137.168C33.3944 137.168 32.8334 137.057 32.3099 136.84C31.7865 136.623 31.3109 136.305 30.9103 135.904V135.904Z" fill="#2975D6"/>
<path d="M122.377 243.832L83.1648 283.045C82.3545 283.855 81.2558 284.31 80.1102 284.31C78.9646 284.31 77.8658 283.855 77.0555 283.045L37.8431 243.832C27.0563 233.001 21 218.338 21 203.052C21 187.765 27.0563 173.102 37.8431 162.271L122.063 78.0975C122.462 77.6986 122.935 77.3822 123.456 77.1664C123.977 76.9505 124.535 76.8394 125.099 76.8394C125.662 76.8394 126.22 76.9505 126.741 77.1664C127.262 77.3822 127.735 77.6986 128.134 78.0975C133.907 83.8716 137.151 91.7027 137.151 99.8682C137.151 108.034 133.907 115.865 128.134 121.639L62.7038 187.029C58.4741 191.28 56.0996 197.032 56.0996 203.028C56.0996 209.024 58.4741 214.777 62.7038 219.027L80.1376 236.429L97.5793 219.035C99.6812 216.934 101.349 214.44 102.486 211.695C103.624 208.95 104.209 206.007 104.209 203.036C104.209 200.064 103.624 197.122 102.486 194.377C101.349 191.632 99.6812 189.138 97.5793 187.037L97.4695 186.935C96.6635 186.123 96.2112 185.025 96.2112 183.881C96.2112 182.736 96.6635 181.638 97.4695 180.826L116.174 162.13C116.574 161.729 117.05 161.411 117.573 161.194C118.097 160.977 118.658 160.866 119.225 160.866C119.791 160.866 120.352 160.977 120.876 161.194C121.399 161.411 121.875 161.729 122.275 162.13L122.377 162.239C127.735 167.596 131.986 173.957 134.886 180.957C137.786 187.956 139.278 195.459 139.278 203.036C139.278 210.613 137.786 218.115 134.886 225.115C131.986 232.115 127.735 238.475 122.377 243.832V243.832Z" fill="#2975D6"/>
<path d="M209.001 102.617C208.983 101.478 209.197 100.347 209.631 99.2919C210.064 98.2364 210.709 97.2781 211.525 96.4741C212.342 95.67 213.314 95.0367 214.383 94.6119C215.453 94.1872 216.598 93.9796 217.75 94.0016H275.126C277.214 94.0016 279.217 94.8215 280.694 96.2809C282.17 97.7403 283 99.7197 283 101.784C283 103.848 282.17 105.827 280.694 107.286C279.217 108.746 277.214 109.566 275.126 109.566H226.295V136.111H268.754C270.843 136.111 272.845 136.93 274.322 138.39C275.799 139.849 276.628 141.829 276.628 143.893C276.628 145.957 275.799 147.936 274.322 149.395C272.845 150.855 270.843 151.675 268.754 151.675H226.295V183.47C226.295 185.732 225.386 187.902 223.767 189.502C222.149 191.101 219.953 192 217.664 192C215.375 192 213.179 191.101 211.561 189.502C209.942 187.902 209.032 185.732 209.032 183.47L209.001 102.617Z" fill="#4A4A4A"/>
<path d="M297 142.776V142.496C297 115.018 318.179 92 348.136 92C378.093 92 399 114.738 399 142.216V142.496C399 169.982 377.821 193 347.856 193C317.891 193 297 170.255 297 142.776ZM381.024 142.776V142.496C381.024 123.526 367.224 107.763 347.856 107.763C328.489 107.763 314.976 123.246 314.976 142.216V142.496C314.976 161.466 328.769 177.097 348.136 177.097C367.504 177.097 381.024 161.746 381.024 142.776Z" fill="#4A4A4A"/>
<path d="M421.001 102.611C420.983 101.476 421.195 100.348 421.625 99.2954C422.054 98.2427 422.692 97.2864 423.501 96.4833C424.309 95.6802 425.272 95.0466 426.332 94.6202C427.392 94.1938 428.528 93.9833 429.671 94.001H464.633C476.94 94.001 486.594 97.6125 492.884 103.72C498.058 108.997 501 116.22 501 124.691V124.97C501 140.524 491.908 149.972 478.759 154.002L497.488 177.469C499.166 179.553 500.282 181.344 500.282 184.002C500.264 185.059 500.036 186.103 499.611 187.073C499.187 188.043 498.574 188.92 497.808 189.655C497.042 190.39 496.138 190.968 495.147 191.356C494.156 191.743 493.098 191.933 492.033 191.915C488.131 191.915 485.595 190.109 483.644 187.474L459.865 157.334H438.201V183.475C438.201 185.736 437.297 187.904 435.687 189.503C434.077 191.102 431.893 192 429.617 192C427.34 192 425.156 191.102 423.547 189.503C421.937 187.904 421.032 185.736 421.032 183.475L421.001 102.611ZM463.377 142.191C475.684 142.191 483.519 135.805 483.519 125.916V125.637C483.519 115.221 475.965 109.524 463.229 109.524H438.201V142.16L463.377 142.191Z" fill="#4A4A4A"/>
<path d="M546.099 109.984H521.872C519.762 109.919 517.76 109.048 516.291 107.557C514.822 106.065 514 104.069 514 101.992C514 99.9145 514.822 97.9188 516.291 96.4271C517.76 94.9354 519.762 94.065 521.872 94H588.128C590.238 94.065 592.24 94.9354 593.709 96.4271C595.178 97.9188 596 99.9145 596 101.992C596 104.069 595.178 106.065 593.709 107.557C592.24 109.048 590.238 109.919 588.128 109.984H563.766V184.308C563.766 186.613 562.835 188.824 561.179 190.454C559.522 192.084 557.275 193 554.932 193C552.59 193 550.343 192.084 548.686 190.454C547.029 188.824 546.099 186.613 546.099 184.308V109.984Z" fill="#4A4A4A"/>
<path d="M615 101.547C615 99.2799 615.843 97.106 617.343 95.5032C618.843 93.9004 620.878 93 623 93C625.122 93 627.157 93.9004 628.657 95.5032C630.157 97.106 631 99.2799 631 101.547V183.453C631 185.72 630.157 187.894 628.657 189.497C627.157 191.1 625.122 192 623 192C620.878 192 618.843 191.1 617.343 189.497C615.843 187.894 615 185.72 615 183.453V101.547Z" fill="#4A4A4A"/>
<path d="M659.001 102.617C658.983 101.48 659.194 100.352 659.62 99.2987C660.046 98.2454 660.679 97.2885 661.481 96.4849C662.284 95.6813 663.239 95.0473 664.291 94.6206C665.343 94.1939 666.47 93.9832 667.605 94.001H724.229C726.29 94.001 728.267 94.8209 729.724 96.2804C731.181 97.7398 732 99.7192 732 101.783C732 103.847 731.181 105.826 729.724 107.286C728.267 108.745 726.29 109.565 724.229 109.565H676.069V136.11H717.979C720.04 136.11 722.017 136.93 723.474 138.39C724.932 139.849 725.751 141.828 725.751 143.892C725.751 145.956 724.932 147.936 723.474 149.395C722.017 150.855 720.04 151.674 717.979 151.674H676.069V183.47C676.069 185.732 675.171 187.902 673.574 189.502C671.976 191.101 669.81 192 667.55 192C665.291 192 663.125 191.101 661.527 189.502C659.93 187.902 659.032 185.732 659.032 183.47L659.001 102.617Z" fill="#4A4A4A"/>
<path d="M778.794 153.369L744.959 107.331C743.71 105.578 743.027 103.492 743 101.347C743 96.76 746.784 93.1434 751.704 93.1434C755.496 93.1434 758.018 95.2311 760.126 98.289L787.49 137.374L815.286 98.1493C817.394 95.0914 819.916 93.0037 823.567 93.0037C824.682 92.9704 825.793 93.1634 826.83 93.5708C827.868 93.9782 828.81 94.5914 829.599 95.3728C830.389 96.1541 831.009 97.0871 831.421 98.1145C831.833 99.1418 832.029 100.242 831.997 101.347C831.899 103.586 831.075 105.733 829.646 107.47L796.108 152.95V183.443C796.108 185.713 795.198 187.889 793.578 189.494C791.958 191.099 789.762 192 787.471 192C785.18 192 782.983 191.099 781.363 189.494C779.744 187.889 778.834 185.713 778.834 183.443L778.794 153.369Z" fill="#4A4A4A"/>
</svg>
